<?xml version="1.0"?>
<!DOCTYPE svg PUBLIC "-//W3C//DTD SVG 1.1//EN" "http://www.w3.org/Graphics/SVG/1.1/DTD/svg11.dtd">
<svg version="1.1" xmlns="http://www.w3.org/2000/svg" width="406px" height="190px" viewBox="0 0 598 280">

<defs>
<filter id="clone" height="5">
<feOffset dx="0" dy="140" in="SourceGraphic" result="moved"/>
<feColorMatrix type="matrix" in="moved" values="0 0 0 0 1 0 0 0 0 0.890625 0 0 0 0 0 0 0 0 1 0"/>
</filter>
</defs>

<g filter="url(#clone)">
<path fill="#fff" d="M93.004,45.885c0-0.435-0.352-0.788-0.787-0.788h-3.392c-0.436,0-0.789,0.353-0.789,0.788v1.512l4.967,3.878
V45.885z"/>
<path fill="#fff" d="M55.141,76.545h-1.23c-0.161,0-0.291,0.13-0.291,0.292v0.852c0,0.161,0.13,0.291,0.291,0.291h1.23
c0.161,0,0.291-0.13,0.291-0.291v-0.852C55.432,76.675,55.302,76.545,55.141,76.545z"/>
<path fill="#fff" d="M57.723,76.545h-1.231c-0.16,0-0.29,0.13-0.29,0.292v0.852c0,0.161,0.131,0.291,0.29,0.291h1.231
c0.161,0,0.29-0.13,0.29-0.291v-0.852C58.013,76.675,57.883,76.545,57.723,76.545z"/>
<path fill="#fff" d="M60.305,76.545h-1.23c-0.161,0-0.291,0.13-0.291,0.292v0.852c0,0.161,0.131,0.291,0.291,0.291h1.23
c0.161,0,0.291-0.13,0.291-0.291v-0.852C60.595,76.675,60.466,76.545,60.305,76.545z"/>
<path fill="#fff" d="M62.887,76.545h-1.23c-0.161,0-0.291,0.13-0.291,0.292v0.852c0,0.161,0.13,0.291,0.291,0.291h1.23
c0.161,0,0.291-0.13,0.291-0.291v-0.852C63.177,76.676,63.047,76.545,62.887,76.545z"/>
<path fill="#fff" d="M115.449,84.463h-2.993v-10.04h2.228c0.325,0,0.458-0.419,0.193-0.607l-9.579-6.908
c-0.556-0.395-1.09-0.605-1.905-0.605c-0.813,0-1.769,0.656-1.769,0.656h-1.564v-4.123h4.836c0.488,0,0.684-0.63,0.283-0.908
l-0.881-0.607l-9.67-7.494v0.012l-12.192-9.433c-0.788-0.545-1.838-0.545-2.623,0l-21.83,16.915l-0.881,0.607
c-0.401,0.278-0.206,0.908,0.282,0.908h4.837v4.123h-1.95c0,0-0.871-0.656-1.862-0.656c-0.991,0-1.303,0.355-1.862,0.677
l-9.671,6.983c-0.231,0.113-0.151,0.46,0.105,0.46h2.721v10.041h-2.87c-0.434,0-0.786,0.353-0.786,0.787v0.441
c0,0.436,0.352,0.788,0.786,0.788h68.616c0.434,0,0.785-0.352,0.785-0.788v-0.441C116.233,84.815,115.882,84.463,115.449,84.463z
M82.372,58.166l5.598-4.431c0.188-0.176,0.481-0.176,0.67,0l5.596,4.431c0.119,0.11,0.041,0.313-0.124,0.313h-1.402l-4.405-3.318
l-4.406,3.318h-1.404C82.331,58.479,82.253,58.276,82.372,58.166z M91.053,61.421h-1.941c-0.253-0.001-0.459-0.206-0.459-0.46
v-1.345c0-0.255,0.206-0.46,0.459-0.46h1.941c0.254,0,0.46,0.206,0.46,0.46v1.345C91.513,61.215,91.307,61.421,91.053,61.421z
M91.513,62.607v1.345c0,0.253-0.206,0.458-0.46,0.458h-1.941c-0.253,0-0.459-0.204-0.459-0.458v-1.345
c0-0.252,0.206-0.458,0.459-0.458h1.941C91.307,62.148,91.513,62.354,91.513,62.607z M87.526,61.421h-1.939
c-0.255,0-0.46-0.206-0.46-0.46v-1.345c0-0.255,0.206-0.46,0.46-0.46h1.939c0.253,0,0.46,0.206,0.46,0.46v1.345
C87.986,61.215,87.78,61.421,87.526,61.421z M87.986,62.607v1.345c0,0.253-0.206,0.458-0.46,0.458h-1.939
c-0.255,0-0.46-0.206-0.46-0.458v-1.345c0-0.252,0.206-0.458,0.46-0.458h1.939C87.779,62.148,87.986,62.354,87.986,62.607z
M67.986,58.166l5.596-4.431c0.188-0.176,0.482-0.176,0.671,0l5.597,4.431c0.119,0.11,0.042,0.313-0.123,0.313h-1.404l-4.406-3.318
l-4.405,3.318h-1.403C67.946,58.479,67.866,58.276,67.986,58.166z M76.667,61.419h-1.941c-0.253,0-0.459-0.206-0.459-0.459v-1.345
c0-0.254,0.205-0.46,0.459-0.46h1.941c0.253,0,0.46,0.206,0.46,0.46v1.345C77.126,61.215,76.92,61.419,76.667,61.419z
M77.126,62.607v1.345c0,0.253-0.206,0.458-0.46,0.458h-1.94c-0.253,0-0.459-0.206-0.459-0.458v-1.345
c0-0.252,0.205-0.458,0.459-0.458h1.941C76.92,62.148,77.126,62.354,77.126,62.607z M73.142,61.419h-1.94
c-0.254,0-0.46-0.206-0.46-0.459v-1.345c0-0.254,0.206-0.46,0.46-0.46h1.94c0.253,0,0.46,0.206,0.46,0.46v1.345
C73.601,61.215,73.394,61.419,73.142,61.419z M73.601,62.607v1.345c0,0.253-0.206,0.458-0.46,0.458H71.2
c-0.254,0-0.46-0.206-0.46-0.458v-1.345c0-0.252,0.206-0.458,0.46-0.458h1.94C73.394,62.148,73.601,62.354,73.601,62.607z
M52.392,84.463c0-2.645,0-5.292,0-7.939c0.934-0.995,2.061-1.69,3.263-2.101c0.726-0.249,1.479-0.39,2.238-0.424
c0.25-0.012,0.501-0.012,0.752,0c0.759,0.034,1.512,0.175,2.238,0.424c1.202,0.41,2.328,1.106,3.262,2.101
c0.001,2.648,0.001,5.294,0.001,7.939H52.392z M65.018,74.448h-1.601l-5.028-3.383l-5.028,3.383H51.76
c-0.188,0-0.278-0.229-0.141-0.358l6.388-4.653c0.216-0.202,0.55-0.202,0.765,0l6.388,4.653
C65.295,74.219,65.206,74.448,65.018,74.448z M71.165,80.696c0,0.29-0.234,0.524-0.524,0.524h-2.213
c-0.29,0-0.524-0.234-0.524-0.524V79.16c0-0.29,0.234-0.524,0.524-0.524h2.213c0.29,0,0.524,0.234,0.524,0.524V80.696z
M71.165,77.281c0,0.29-0.234,0.524-0.524,0.524h-2.213c-0.29,0-0.524-0.234-0.524-0.524v-1.536c0-0.29,0.234-0.525,0.524-0.525
h2.213c0.29,0,0.524,0.235,0.524,0.525V77.281z M75.189,80.696c0,0.29-0.235,0.524-0.525,0.524H72.45
c-0.289,0-0.524-0.234-0.524-0.524V79.16c0-0.29,0.234-0.524,0.524-0.524h2.215c0.289,0,0.525,0.234,0.525,0.524V80.696z
M75.189,77.281c0,0.29-0.235,0.524-0.525,0.524H72.45c-0.289,0-0.524-0.234-0.524-0.524v-1.536c0-0.29,0.234-0.525,0.524-0.525
h2.215c0.289,0,0.525,0.235,0.525,0.525V77.281z M82.771,80.696c0,0.29-0.235,0.524-0.524,0.524h-2.215
c-0.29,0-0.524-0.234-0.524-0.524V79.16c0-0.29,0.234-0.524,0.524-0.524h2.215c0.289,0,0.524,0.234,0.524,0.524V80.696z
M82.771,77.281c0,0.29-0.235,0.524-0.524,0.524h-2.215c-0.29,0-0.524-0.234-0.524-0.524v-1.536c0-0.29,0.234-0.525,0.524-0.525
h2.215c0.289,0,0.524,0.235,0.524,0.525V77.281z M86.796,80.696c0,0.29-0.234,0.524-0.525,0.524h-2.214
c-0.29,0-0.524-0.234-0.524-0.524V79.16c0-0.29,0.234-0.524,0.524-0.524h2.214c0.291,0,0.525,0.234,0.525,0.524V80.696z
M86.796,77.281c0,0.29-0.234,0.524-0.525,0.524h-2.214c-0.29,0-0.524-0.234-0.524-0.524v-1.536c0-0.29,0.234-0.525,0.524-0.525
h2.214c0.291,0,0.525,0.235,0.525,0.525V77.281z M95.115,84.496h-4.652c0-2.716,0-5.432,0-8.148c1.26-1.344,3.392-1.344,4.652,0
C95.115,79.064,95.115,81.78,95.115,84.496z M103.575,80.696c0,0.29-0.235,0.524-0.524,0.524h-2.215
c-0.289,0-0.523-0.234-0.523-0.524V79.16c0-0.29,0.234-0.524,0.523-0.524h2.215c0.289,0,0.524,0.234,0.524,0.524V80.696z
M103.575,77.281c0,0.29-0.235,0.524-0.524,0.524h-2.215c-0.289,0-0.523-0.234-0.523-0.524v-1.536c0-0.29,0.234-0.525,0.523-0.525
h2.215c0.289,0,0.524,0.235,0.524,0.525V77.281z M107.6,80.696c0,0.29-0.236,0.524-0.525,0.524h-2.214
c-0.29,0-0.524-0.234-0.524-0.524V79.16c0-0.29,0.234-0.524,0.524-0.524h2.214c0.289,0,0.525,0.234,0.525,0.524V80.696z
M107.6,77.281c0,0.29-0.236,0.524-0.525,0.524h-2.214c-0.29,0-0.524-0.234-0.524-0.524v-1.536c0-0.29,0.234-0.525,0.524-0.525
h2.214c0.289,0,0.525,0.235,0.525,0.525V77.281z M110.568,74.448h-1.602l-5.028-3.383l-5.028,3.383h-1.602
c-0.187,0-0.277-0.229-0.139-0.358l6.387-4.653c0.216-0.202,0.55-0.202,0.765,0l6.389,4.653
C110.845,74.219,110.754,74.448,110.568,74.448z"/>
<path fill="#fff" d="M380.515,79.895h9.283v5.213h-9.283V79.895z"/>
<path fill="#fff" d="M394.153,79.895h9.283v5.213h-9.283V79.895z"/>
<path fill="#fff" d="M380.515,79.54h22.922V46.329h-22.922V79.54z M396.748,48.641h4.355v5.39h-4.355V48.641z M396.748,55.686h4.355
v5.39h-4.355V55.686z M396.748,62.958h4.355v5.391h-4.355V62.958z M396.748,70.917h4.355v5.389h-4.355V70.917z M389.798,48.641
h4.355v5.39h-4.355V48.641z M389.798,55.686h4.355v5.39h-4.355V55.686z M389.798,62.958h4.355v5.391h-4.355V62.958z M389.798,70.917
h4.355v5.389h-4.355V70.917z M382.972,48.641h4.356v5.39h-4.356V48.641z M382.972,55.686h4.356v5.39h-4.356V55.686z M382.972,62.958
h4.356v5.391h-4.356V62.958z M382.972,70.917h4.356v5.389h-4.356V70.917z"/>
<path fill="#fff" d="M400.648,42.869v-2.637h-7.901v2.637h-12.232v3.105h22.922v-3.105H400.648z"/>
<path fill="#fff" d="M354.002,79.895h9.283v5.213h-9.283V79.895z"/>
<path fill="#fff" d="M367.641,79.895h9.284v5.213h-9.284V79.895z"/>
<path fill="#fff" d="M354.002,79.54h22.922V52.224h-22.922V79.54z M370.236,55.686h4.355v5.39h-4.355V55.686z M370.236,62.958h4.355
v5.391h-4.355V62.958z M370.236,70.917h4.355v5.389h-4.355V70.917z M363.285,55.686h4.355v5.39h-4.355V55.686z M363.285,62.958
h4.355v5.391h-4.355V62.958z M363.285,70.917h4.355v5.389h-4.355V70.917z M356.46,55.686h4.356v5.39h-4.356V55.686z M356.46,62.958
h4.356v5.391h-4.356V62.958z M356.46,70.917h4.356v5.389h-4.356V70.917z"/>
<path fill="#fff" d="M374.136,48.763v-2.637h-7.901v2.637h-12.232v3.105h22.922v-3.105H374.136z"/>
</g>
<path fill="#eee" d="M160,280 l 20,-20 20,20z"/>
<path fill="#eee" d="M460,280 l 20,-20 20,20z"/>

</svg>
