<?xml version="1.0"?>
<!DOCTYPE svg PUBLIC "-//W3C//DTD SVG 1.1//EN" "http://www.w3.org/Graphics/SVG/1.1/DTD/svg11.dtd">
<svg version="1.1" xmlns="http://www.w3.org/2000/svg" width="37px" height="50px" viewBox="0 0 37 50">
<path fill="#ed1c24" d="M0,0h35v50h-35Z"/>
<path fill="#f14950" d="M35,0h2v50h-2Z"/>
<path fill="#fff" d="M19,18v5h5l-1.5,-1.5l3,-3l-2,-2l-3,3Z"/>
<path fill="#fff" d="m 356.53,436.63 c 1.74,-0.54 3.55,-0.82 5.36,-0.97 l 31.59,141.79 c -22.80349,17.79505 -21.60618,50.06978 -5.65,69.7 39.74588,47.33561 71.56735,95.12077 111.89,135.11 29.71439,22.59825 52.695,2.68789 59.77,-0.71 l 128.54,65.47 C 563.48305,978.46114 430.46445,841.68772 355.92,755.05 316.40854,689.96882 281.41864,619.78599 273.69,546.55 c -8.04362,-54.96031 38.54707,-96.01445 82.84,-109.92 z"/>
<path fill="#fff" d="m 23.7,16.4 60.21,63.01 -85.57,85.89 38.37,41.67 -139.98,0.09 -0.16,-143.01 38.96,40.6 z"/>
<path fill="#fff" d="m 601.68,745.27 88.64,41.44 c 19.23902,10.65129 12.63508,32.89915 9.17,50.32 L 564.98,768.67 c 24.13473,-25.37948 26.62243,-24.11445 36.7,-23.4 z"/>
</svg>
